# xmcd
#
# Track frame offsets:
#	150
#	21823
#	53113
#	72695
#	94870
#	120096
#	139561
#	176406
#
# Disc length: 2688 seconds
#
# Revision: 1
# Processed by: cddbd v1.5.1PL0 Copyright (c) Steve Scherf et al.
# Submitted via: EasyCDDAExtractor 8.0.1.1
#
DISCID=640a7e08
DTITLE=Jonny Lang - Live in A. Worth, Texas - 01/08/1999
DYEAR=1999
DGENRE=Blues
TTITLE0=Still Raining
TTITLE1=Good Morning Little School Girl
TTITLE2=A Quitter Never Wins
TTITLE3=The Levee
TTITLE4=Home In The Blues
TTITLE5=Darker Side
TTITLE6=Right Back
TTITLE7=There's Gotta Be a Change
EXTD=
EXTT0=
EXTT1=
EXTT2=
EXTT3=
EXTT4=
EXTT5=
EXTT6=
EXTT7=
PLAYORDER=
